<svg width="96" height="96" viewBox="0 0 96 96" fill="none" xmlns="http://www.w3.org/2000/svg">
  <ellipse cx="39" cy="57" rx="15" ry="9" fill="#A9C6FB"/>
  <ellipse cx="57" cy="42" rx="17" ry="10" fill="#4D86F7"/>
  <path d="M40 57C40 51.4772 47.6112 47 57 47C66.3888 47 74 51.4772 74 57V62C74 67.5228 66.3888 72 57 72C47.6112 72 40 67.5228 40 62V57Z" fill="#4D86F7"/>
  <path d="M57 33C66.3888 33 74 37.4772 74 43C74 48.5228 66.3888 53 57 53C47.6112 53 40 48.5228 40 43C40 37.4772 47.6112 33 57 33Z" fill="#A9C6FB" stroke="#3E78EC" stroke-width="4.5"/>
  <path d="M57 38L59.1631 42.7216L64 43.2361L60.4 46.4784L61.3262 51.2639L57 48.84L52.6738 51.2639L53.6 46.4784L50 43.2361L54.8369 42.7216L57 38Z" fill="#3E78EC"/>
</svg>
