<svg width="96" height="96" viewBox="0 0 96 96" fill="none" xmlns="http://www.w3.org/2000/svg">
  <rect x="21" y="37" width="54" height="14" rx="3" fill="#A9C6FB"/>
  <path d="M24 47H72V72C72 74.7614 69.7614 77 67 77H29C26.2386 77 24 74.7614 24 72V47Z" fill="#F1F6FD" stroke="#3E78EC" stroke-width="4.5" stroke-linejoin="round"/>
  <path d="M48 37V77" stroke="#3E78EC" stroke-width="4.5" stroke-linecap="round"/>
  <path d="M48 37C41 37 35 33.5 35 28.5C35 25.7386 37.2386 23.5 40 23.5C44.5 23.5 48 28.5 48 37Z" fill="#4D86F7"/>
  <path d="M48 37C55 37 61 33.5 61 28.5C61 25.7386 58.7614 23.5 56 23.5C51.5 23.5 48 28.5 48 37Z" fill="#4D86F7"/>
</svg>
