<svg width="96" height="96" viewBox="0 0 96 96" fill="none" xmlns="http://www.w3.org/2000/svg">
  <circle cx="48" cy="21" r="6" fill="#4D86F7"/>
  <path d="M48 29V58" stroke="#3E78EC" stroke-width="4.5" stroke-linecap="round"/>
  <path d="M31 36H65" stroke="#3E78EC" stroke-width="4.5" stroke-linecap="round"/>
  <path d="M37 36L30 48" stroke="#3E78EC" stroke-width="3.5" stroke-linecap="round"/>
  <path d="M59 36L66 48" stroke="#3E78EC" stroke-width="3.5" stroke-linecap="round"/>
  <path d="M23 49C23 45.6863 25.6863 43 29 43H31C34.3137 43 37 45.6863 37 49V50H23V49Z" fill="#4D86F7"/>
  <path d="M59 49C59 45.6863 61.6863 43 65 43H67C70.3137 43 73 45.6863 73 49V50H59V49Z" fill="#4D86F7"/>
  <path d="M18 55.5C18 59.6421 23.1487 63 29.5 63C35.8513 63 41 59.6421 41 55.5H18Z" fill="#A9C6FB"/>
  <path d="M55 55.5C55 59.6421 60.1487 63 66.5 63C72.8513 63 78 59.6421 78 55.5H55Z" fill="#A9C6FB"/>
  <rect x="38" y="61" width="20" height="7" rx="3.5" fill="#3E78EC"/>
  <rect x="30" y="71" width="36" height="8" rx="4" fill="#A9C6FB"/>
</svg>
